# File created by Blade
# Date/Time:  Wed Sep 24 19:25:39 2014
# Frame Rate: 120.000 fps
#------------------------------------------------------
:FULLY-SPECIFIED
:DEGREES
3318
root -15.438187 32.250518 -5.065085 13.840506 47.333573 -3.965734
Spine -12.687585 2.412441 18.339434
Head -11.870017 -20.661207 -2.372876
LeftShoulder -9.056030 16.967727 6.108078
LeftArm 42.275638 50.178112 -61.060217
LeftForeArm 9.087654 -0.000000 32.678198
LeftHand -24.983932 -0.000000 -2.097333
LeftHandThumb1 -26.253704 0.000000 33.147579
RightShoulder -17.756322 14.566870 -34.837235
RightArm -7.052662 27.348683 48.397549
RightForeArm 18.579773 -0.000000 125.347621
RightHand -13.691195 -0.000000 -0.838365
RightHandThumb1 -24.326973 -0.000000 -32.862282
LeftUpLeg -18.379653 40.809208 6.727929
LeftLeg 81.741131 -0.000000 -0.000000
LeftFoot 35.855774 22.592468 -20.613492
LeftToeBase 26.306578 -0.000000 -0.000000
RightUpLeg -15.089161 -6.391631 12.979800
RightLeg -0.132237 -0.000000 0.000000
RightFoot -7.313188 -25.177682 -10.547979
RightToeBase -0.033401 -0.000000 0.000000
3319
root -15.438463 32.249383 -5.068066 13.846547 47.208463 -4.010150
Spine -12.640750 2.496997 18.310938
Head -12.063338 -20.713352 -2.250179
LeftShoulder -9.087927 16.942828 6.145216
LeftArm 42.213135 50.159499 -61.147512
LeftForeArm 9.042886 0.000000 32.560315
LeftHand -25.076554 0.000000 -2.072084
LeftHandThumb1 -26.253704 0.000000 33.147579
RightShoulder -17.751660 14.575810 -34.842140
RightArm -7.037526 27.244554 48.373366
RightForeArm 18.528010 -0.000000 125.356880
RightHand -13.675520 -0.000000 -0.851122
RightHandThumb1 -24.326973 -0.000000 -32.862282
LeftUpLeg -18.332682 40.775883 6.732119
LeftLeg 81.716209 -0.000000 -0.000000
LeftFoot 35.830424 22.615331 -20.735930
LeftToeBase 26.227325 -0.000000 -0.000000
RightUpLeg -15.126428 -6.346802 13.008813
RightLeg -0.112266 -0.000000 0.000000
RightFoot -7.301937 -25.119063 -10.572912
RightToeBase -0.035942 -0.000000 0.000000
3320
root -15.436514 32.249010 -5.070866 13.897416 47.125360 -4.006728
Spine -12.633592 2.536712 18.252889
Head -12.236002 -20.774433 -2.124451
LeftShoulder -9.136808 16.924704 6.178899
LeftArm 42.177083 50.161559 -61.195030
LeftForeArm 8.944325 -0.000000 32.421434
LeftHand -25.070683 -0.000000 -2.025161
LeftHandThumb1 -26.253704 0.000000 33.147579
RightShoulder -17.770648 14.550008 -34.825577
RightArm -6.961168 27.130548 48.365916
RightForeArm 18.444006 -0.000000 125.349706
RightHand -13.654228 -0.000000 -0.848879
RightHandThumb1 -24.326973 -0.000000 -32.862282
LeftUpLeg -18.323828 40.710281 6.684066
LeftLeg 81.692089 -0.000000 -0.000000
LeftFoot 35.822825 22.674022 -20.806446
LeftToeBase 26.102825 -0.000000 -0.000000
RightUpLeg -15.163155 -6.335130 13.012425
RightLeg -0.127414 -0.000000 0.000000
RightFoot -7.270807 -25.098408 -10.687543
RightToeBase -0.018028 -0.000000 0.000000
3321
root -15.434507 32.248356 -5.072082 13.930772 47.045240 -4.016400
Spine -12.619443 2.566309 18.206145
Head -12.423247 -20.824918 -2.006390
LeftShoulder -9.183361 16.928061 6.208527
LeftArm 42.128714 50.138126 -61.251599
LeftForeArm 8.847664 -0.000000 32.282465
LeftHand -25.024968 -0.000000 -2.068491
LeftHandThumb1 -26.253704 0.000000 33.147579
RightShoulder -17.780681 14.547227 -34.814943
RightArm -6.914864 27.014470 48.337110
RightForeArm 18.373023 -0.000000 125.357304
RightHand -13.675566 0.000000 -0.870891
RightHandThumb1 -24.326973 -0.000000 -32.862282
LeftUpLeg -18.297659 40.658201 6.659567
LeftLeg 81.666633 -0.000000 -0.000000
LeftFoot 35.859226 22.657461 -20.755695
LeftToeBase 26.154874 -0.000000 -0.000000
RightUpLeg -15.190130 -6.336193 13.030751
RightLeg -0.143641 -0.000000 0.000000
RightFoot -7.244300 -25.055382 -10.800953
RightToeBase -0.062882 -0.000000 0.000000
3322
root -15.431764 32.248074 -5.073593 13.978291 46.952878 -4.012595
Spine -12.620956 2.593620 18.145542
Head -12.568858 -20.885806 -1.920462
LeftShoulder -9.217147 16.945605 6.231299
LeftArm 42.047627 50.082313 -61.331752
LeftForeArm 8.783901 -0.000000 32.127117
LeftHand -25.118012 -0.000000 -2.161876
LeftHandThumb1 -26.253704 0.000000 33.147579
RightShoulder -17.771569 14.546892 -34.787010
RightArm -6.895496 26.898465 48.257343
RightForeArm 18.307670 -0.000000 125.368099
RightHand -13.712439 -0.000000 -0.839789
RightHandThumb1 -24.326973 -0.000000 -32.862282
LeftUpLeg -18.278566 40.624511 6.610785
LeftLeg 81.642338 -0.000000 -0.000000
LeftFoot 35.856388 22.609225 -20.718623
LeftToeBase 26.160482 -0.000000 -0.000000
RightUpLeg -15.214786 -6.306513 13.029916
RightLeg -0.167863 -0.000000 0.000000
RightFoot -7.200238 -25.050570 -10.970958
RightToeBase -0.014647 -0.000000 0.000000
3323
root -15.430280 32.247389 -5.075054 14.017843 46.868563 -4.021132
Spine -12.623470 2.616223 18.095403
Head -12.718323 -20.923048 -1.823067
LeftShoulder -9.252878 16.982950 6.240597
LeftArm 42.032533 50.037086 -61.341532
LeftForeArm 8.687754 -0.000000 31.987999
LeftHand -25.248909 0.000000 -2.075014
LeftHandThumb1 -26.253704 0.000000 33.147579
RightShoulder -17.759015 14.548897 -34.787033
RightArm -6.893681 26.812872 48.207364
RightForeArm 18.302983 0.000000 125.382595
RightHand -13.767753 -0.000000 -0.828021
RightHandThumb1 -24.326973 -0.000000 -32.862282
LeftUpLeg -18.274183 40.591455 6.570778
LeftLeg 81.640884 -0.000000 -0.000000
LeftFoot 35.814307 22.579572 -20.710209
LeftToeBase 26.252016 -0.000000 -0.000000
RightUpLeg -15.245999 -6.255493 13.034009
RightLeg -0.183762 -0.000000 0.000000
RightFoot -7.151385 -25.061518 -11.100680
RightToeBase -0.033724 -0.000000 0.000000
3324
root -15.427529 32.247068 -5.074481 14.067820 46.818231 -4.026270
Spine -12.657432 2.592148 18.053350
Head -12.844091 -20.944862 -1.733471
LeftShoulder -9.296549 17.025196 6.247991
LeftArm 41.897660 49.922243 -61.505802
LeftForeArm 8.670603 -0.000000 31.799249
LeftHand -25.231026 0.000000 -2.163334
LeftHandThumb1 -26.253704 0.000000 33.147579
RightShoulder -17.744267 14.553282 -34.790896
RightArm -6.888313 26.692606 48.161535
RightForeArm 18.232755 -0.000000 125.395990
RightHand -13.762748 -0.000000 -0.858398
RightHandThumb1 -24.326973 -0.000000 -32.862282
LeftUpLeg -18.300307 40.545482 6.516343
LeftLeg 81.642155 -0.000000 -0.000000
LeftFoot 35.790429 22.494696 -20.578730
LeftToeBase 26.476528 -0.000000 -0.000000
RightUpLeg -15.284477 -6.248746 13.051232
RightLeg -0.190944 -0.000000 0.000000
RightFoot -7.110154 -25.122667 -11.319315
RightToeBase 0.031307 -0.000000 -0.000000
3325
root -15.427627 32.246770 -5.076298 14.116430 46.740260 -4.035193
Spine -12.660645 2.568926 18.003068
Head -13.014095 -20.943337 -1.610951
LeftShoulder -9.357795 17.034518 6.280898
LeftArm 41.865413 49.916842 -61.504263
LeftForeArm 8.457260 -0.000000 31.625843
LeftHand -25.153168 -0.000000 -2.139997
LeftHandThumb1 -26.253704 0.000000 33.147579
RightShoulder -17.732010 14.592733 -34.791204
RightArm -6.863239 26.573980 48.144275
RightForeArm 18.115090 -0.000000 125.416848
RightHand -13.833607 -0.000000 -0.964831
RightHandThumb1 -24.326973 -0.000000 -32.862282
LeftUpLeg -18.318405 40.508993 6.460389
LeftLeg 81.642198 -0.000000 -0.000000
LeftFoot 35.744846 22.611604 -20.759701
LeftToeBase 26.394244 -0.000000 -0.000000
RightUpLeg -15.329617 -6.191815 13.055132
RightLeg -0.196967 -0.000000 0.000000
RightFoot -7.075526 -25.135928 -11.398363
RightToeBase -0.032929 -0.000000 0.000000
3326
root -15.428293 32.246385 -5.077279 14.144608 46.682902 -4.049448
Spine -12.654151 2.543892 17.956614
Head -13.161768 -20.980108 -1.504541
LeftShoulder -9.389116 17.075647 6.291538
LeftArm 41.792959 49.838124 -61.565199
LeftForeArm 8.448613 0.000000 31.480494
LeftHand -25.213864 0.000000 -2.100636
LeftHandThumb1 -26.253704 0.000000 33.147579
RightShoulder -17.730164 14.594983 -34.790553
RightArm -6.860109 26.489607 48.098073
RightForeArm 18.126214 -0.000000 125.428109
RightHand -13.889688 -0.000000 -1.035106
RightHandThumb1 -24.326973 -0.000000 -32.862282
LeftUpLeg -18.322218 40.470793 6.432012
LeftLeg 81.638096 -0.000000 -0.000000
LeftFoot 35.731068 22.671786 -20.877417
LeftToeBase 26.343776 -0.000000 -0.000000
RightUpLeg -15.366344 -6.171950 13.067761
RightLeg -0.203334 -0.000000 0.000000
RightFoot -7.067746 -25.068085 -11.420260
RightToeBase -0.157320 -0.000000 0.000000
3327
root -15.430380 32.246103 -5.078514 14.167649 46.618436 -4.074676
Spine -12.642072 2.523911 17.918448
Head -13.326970 -21.028168 -1.406669
LeftShoulder -9.406741 17.097105 6.309741
LeftArm 41.699542 49.766922 -61.639594
LeftForeArm 8.343107 0.000000 31.330924
LeftHand -25.356547 -0.000000 -1.972836
LeftHandThumb1 -26.253704 0.000000 33.147579
RightShoulder -17.719127 14.622872 -34.785591
RightArm -6.892036 26.415612 48.016911
RightForeArm 18.137500 0.000000 125.450586
RightHand -13.885311 -0.000000 -0.974262
RightHandThumb1 -24.326973 -0.000000 -32.862282
LeftUpLeg -18.343529 40.461431 6.403419
LeftLeg 81.653662 -0.000000 -0.000000
LeftFoot 35.703045 22.693362 -20.949570
LeftToeBase 26.384675 -0.000000 -0.000000
RightUpLeg -15.420681 -6.127572 13.088085
RightLeg -0.169287 -0.000000 0.000000
RightFoot -7.070827 -25.074525 -11.465131
RightToeBase -0.167574 -0.000000 0.000000
3328
root -15.435296 32.246153 -5.081539 14.195858 46.556247 -4.095795
Spine -12.620949 2.522599 17.872304
Head -13.507425 -21.082751 -1.306973
LeftShoulder -9.384992 17.102201 6.338046
LeftArm 41.587147 49.659673 -61.729757
LeftForeArm 8.194126 -0.000000 31.144372
LeftHand -25.277270 -0.000000 -1.960460
LeftHandThumb1 -26.253704 0.000000 33.147579
RightShoulder -17.751889 14.608804 -34.783141
RightArm -6.854594 26.361661 47.975372
RightForeArm 18.122399 -0.000000 125.458664
RightHand -13.908536 0.000000 -0.911097
RightHandThumb1 -24.326973 -0.000000 -32.862282
LeftUpLeg -18.386709 40.459696 6.362708
LeftLeg 81.686800 -0.000000 -0.000000
LeftFoot 35.634753 22.736565 -21.032137
LeftToeBase 26.463426 -0.000000 -0.000000
RightUpLeg -15.494548 -6.083688 13.106298
RightLeg -0.112060 -0.000000 0.000000
RightFoot -7.054712 -25.080235 -11.533949
RightToeBase -0.222830 -0.000000 0.000000
3329
root -15.436593 32.246407 -5.082836 14.215675 46.493874 -4.113154
Spine -12.603004 2.501953 17.831341
Head -13.662752 -21.127323 -1.232689
LeftShoulder -9.393078 17.123682 6.352317
LeftArm 41.538059 49.601505 -61.747345
LeftForeArm 8.084527 -0.000000 30.951673
LeftHand -25.241079 -0.000000 -2.022725
LeftHandThumb1 -26.253704 0.000000 33.147579
RightShoulder -17.782855 14.592842 -34.790568
RightArm -6.808150 26.306594 47.954387
RightForeArm 18.126941 0.000000 125.447198
RightHand -13.912086 -0.000000 -0.865522
RightHandThumb1 -24.326973 -0.000000 -32.862282
LeftUpLeg -18.397604 40.493976 6.330900
LeftLeg 81.697000 -0.000000 -0.000000
LeftFoot 35.607992 22.754714 -21.029706
LeftToeBase 26.499024 -0.000000 -0.000000
RightUpLeg -15.547663 -6.063858 13.122551
RightLeg -0.059158 -0.000000 0.000000
RightFoot -7.067488 -25.054763 -11.579386
RightToeBase -0.269779 -0.000000 0.000000
